<?xml version="1.0" encoding="UTF-8"?>
<svg width="178px" height="74px" viewBox="0 0 178 74" version="1.1" xmlns="http://www.w3.org/2000/svg" xmlns:xlink="http://www.w3.org/1999/xlink">
    <!-- Generator: sketchtool 64 (101010) - https://sketch.com -->
    <title>629B2BE3-93CA-4E77-8084-ECC490E15F8E@3x</title>
    <desc>Created with sketchtool.</desc>
    <defs>
        <polygon id="path-1" points="0 0.0609195424 16.5924638 0.0609195424 16.5924638 35.3908334 0 35.3908334"></polygon>
        <polygon id="path-3" points="0.853635161 0.00555000022 51.0191038 0.00555000022 51.0191038 73.5370867 0.853635161 73.5370867"></polygon>
        <polygon id="path-5" points="0.0572750248 0.804611282 38.4380431 0.804611282 38.4380431 38.9789003 0.0572750248 38.9789003"></polygon>
    </defs>
    <g id="Shulinka_Desktop" stroke="none" stroke-width="1" fill="none" fill-rule="evenodd">
        <g id="Home-page" transform="translate(-1701.000000, -83.000000)">
            <g id="header">
                <g id="Logo" transform="translate(1701.000000, 82.000000)">
                    <g id="Group-82" transform="translate(0.000000, 0.008362)">
                        <g id="Group-3" transform="translate(0.000000, 22.790643)">
                            <mask id="mask-2" fill="white">
                                <use xlink:href="#path-1"></use>
                            </mask>
                            <g id="Clip-2"></g>
                            <path d="M15.8866923,0.0609195424 L0.658208598,0.0609195424 C0.235582607,0.0609195424 -0.000139480525,0.388369555 -0.000139480525,0.76299457 L-0.000139480525,3.29101967 C-0.000139480525,3.66564469 0.235582607,3.9473072 0.658208598,3.9473072 L12.5447389,3.9473072 L12.5684506,34.7359334 C12.5447389,35.1105584 12.873913,35.3908334 13.2505104,35.3908334 L15.8866923,35.3908334 C16.2632897,35.3908334 16.5924638,35.1105584 16.5924638,34.7359334 L16.5924638,0.810169572 C16.5924638,0.435544557 16.2632897,0.0609195424 15.8866923,0.0609195424 M3.27067883,9.84695743 L0.658208598,9.84695743 C0.235582607,9.84695743 -0.000139480525,10.0814449 -0.000139480525,10.503245 L-0.000139480525,34.7359334 C-0.000139480525,35.1105584 0.235582607,35.3908334 0.658208598,35.3908334 L3.27067883,35.3908334 C3.71841132,35.3908334 3.9541334,35.1105584 3.9541334,34.7359334 L3.9541334,10.503245 C3.9541334,10.0814449 3.71841132,9.84695743 3.27067883,9.84695743" id="Fill-1" fill="#010202" mask="url(#mask-2)"></path>
                        </g>
                        <path d="M24.8085641,20.3217338 L22.9492887,20.3217338 C22.3132575,20.3217338 22.0077952,20.6963588 22.0077952,21.4234088 L22.0077952,26.0118715 C22.0077952,26.6445715 22.3606809,27.0885715 22.8321251,27.112159 L23.3021744,27.1357465 L21.7260445,33.6445093 C21.5600627,34.4409343 21.6786211,34.6046593 22.1960939,34.6046593 L22.5489796,34.6046593 C22.925577,34.6046593 23.1375874,34.5103093 23.2784627,33.9955468 L25.0205745,28.0015466 C25.8449044,25.2154465 26.0094914,24.7936464 25.962068,23.0384589 L25.890933,21.3526463 C25.8449044,20.6741588 25.4445953,20.3217338 24.8085641,20.3217338" id="Fill-4" fill="#010202"></path>
                        <path d="M46.9558398,62.8180855 L39.8716239,62.8180855 C39.3541512,62.8180855 39.0235823,63.2870605 39.0235823,63.9419605 L39.0235823,64.8771355 C39.0235823,65.5570106 39.3541512,66.0259856 39.8716239,66.0259856 L46.9558398,66.0259856 C47.4970242,66.0259856 47.8275931,65.5570106 47.8275931,64.8771355 L47.8275931,63.9419605 C47.8275931,63.2870605 47.4970242,62.8180855 46.9558398,62.8180855" id="Fill-6" fill="#010202"></path>
                        <path d="M44.2963646,22.8515626 L31.3748888,22.8515626 C30.9982914,22.8515626 30.7165407,23.1790126 30.7165407,23.5536376 L30.7165407,26.0816627 C30.7165407,26.4562878 30.9982914,26.7379503 31.3748888,26.7379503 L42.5793594,26.7379503 C43.4260061,26.7379503 44.2726529,27.2998878 44.085749,28.7512129 L40.5778138,57.5016015 C40.5303904,57.8762265 40.6963723,58.1814765 41.0729697,58.1814765 L43.8737386,58.1814765 C44.2029127,58.1814765 44.5557984,57.899814 44.6032218,57.572364 L48.1097622,28.5167253 C48.1571855,28.0491378 48.2506375,27.2998878 48.2506375,26.8780878 C48.2506375,24.5137877 46.6507959,22.8515626 44.2963646,22.8515626 M34.2230811,32.6847755 L31.5394758,32.6847755 C31.1642732,32.6847755 30.8811277,33.0122255 30.8811277,33.410438 L30.8811277,62.6769767 C30.8811277,63.0516017 31.1642732,63.3790517 31.5394758,63.3790517 L34.2230811,63.3790517 C34.5996785,63.3790517 34.882824,63.0516017 34.882824,62.6769767 L34.882824,33.410438 C34.882824,33.0122255 34.5996785,32.6847755 34.2230811,32.6847755" id="Fill-8" fill="#010202"></path>
                        <path d="M54.771631,63.2380817 L54.1593115,63.2380817 C53.6181271,63.2380817 53.288953,63.7070567 53.288953,64.3633443 L53.288953,65.6967318 C53.288953,66.3530193 53.6181271,66.8206069 54.1593115,66.8206069 L54.771631,66.8206069 C55.2891038,66.8206069 55.6182778,66.3530193 55.6182778,65.6967318 L55.6182778,64.3633443 C55.6182778,63.7070567 55.2891038,63.2380817 54.771631,63.2380817 M54.7242076,70.0049195 L54.1593115,70.0049195 C53.6181271,70.0049195 53.2415296,70.4738945 53.2415296,71.1287945 L53.2415296,72.4163946 C53.2415296,73.0726821 53.6181271,73.5402696 54.1593115,73.5402696 L54.7242076,73.5402696 C55.2416804,73.5402696 55.5708544,73.0726821 55.5708544,72.4163946 L55.5708544,71.1287945 C55.5708544,70.4738945 55.2416804,70.0049195 54.7242076,70.0049195" id="Fill-10" fill="#010202"></path>
                        <path d="M57.6436745,22.8515626 L54.8666172,22.8515626 C54.4900198,22.8515626 54.2068744,23.1790126 54.2068744,23.5536376 L54.2542977,50.9470512 C54.2542977,53.4514888 53.3128042,54.2950889 51.8301262,54.2950889 L49.6179651,54.2950889 C49.217656,54.2950889 48.9345105,54.5753639 48.9345105,54.9499889 L48.9345105,57.5265765 C48.9345105,57.9012015 49.217656,58.1814765 49.6179651,58.1814765 L53.1245055,58.1814765 C56.3953238,58.1814765 58.3731576,55.8407639 58.3731576,52.0945138 L58.2783109,23.5536376 C58.2783109,23.1790126 57.9491368,22.8515626 57.6436745,22.8515626" id="Fill-12" fill="#010202"></path>
                        <path d="M67.2003222,22.8501751 L64.5878519,22.8501751 C64.1638311,22.8501751 63.928109,23.1790126 63.928109,23.5536376 L63.928109,41.4870759 C63.928109,41.8617009 64.1638311,42.1433634 64.5878519,42.1433634 L67.2003222,42.1433634 C67.6480546,42.1433634 67.8823819,41.8617009 67.8823819,41.4870759 L67.8823819,23.5536376 C67.8823819,23.1790126 67.6480546,22.8501751 67.2003222,22.8501751" id="Fill-14" fill="#010202"></path>
                        <path d="M80.5681357,62.3262167 L79.8623642,62.3262167 C79.3211798,62.3262167 78.9445824,62.8173917 78.9445824,63.4736792 L78.9445824,64.8778293 C78.9445824,65.5577043 79.3211798,66.0252918 79.8623642,66.0252918 L80.5681357,66.0252918 C81.0856084,66.0252918 81.4636006,65.5577043 81.4636006,64.8778293 L81.4636006,63.4736792 C81.4636006,62.8173917 81.0856084,62.3262167 80.5681357,62.3262167" id="Fill-16" fill="#010202"></path>
                        <path d="M75.2265895,16.9045986 L72.7312829,16.9045986 C72.3546855,16.9045986 72.0017997,17.1848736 72.0017997,17.5594987 L72.0017997,26.0829115 C72.0017997,26.4575365 72.3546855,26.7378115 72.7312829,26.7378115 L81.840756,26.7378115 C82.5228157,26.7378115 83.4168859,27.088849 83.0877119,28.9855616 L78.6159662,57.2447752 C78.5685429,57.6665753 78.6159662,58.1813378 79.133439,58.1813378 L81.8867846,58.1813378 C82.334517,58.1813378 82.6176625,57.8067128 82.6874028,57.4320877 L87.2065718,28.6109366 C87.3251302,27.7673366 87.4185822,27.1124365 87.4185822,26.550499 C87.4185822,24.1861989 85.7476055,22.8514239 83.8883301,22.8514239 L75.8849376,22.8514239 L75.8849376,17.5594987 C75.8849376,17.1848736 75.6031869,16.9045986 75.2265895,16.9045986" id="Fill-18" fill="#010202"></path>
                        <path d="M90.1961974,37.4609669 L89.4430025,37.4609669 C88.9018181,37.4609669 88.5252207,37.9285545 88.5252207,38.6084295 L88.5252207,40.1527171 C88.5252207,40.8325921 88.9018181,41.3001796 89.4430025,41.3001796 L90.1961974,41.3001796 C90.6662467,41.3001796 91.0428441,40.8325921 91.0428441,40.1527171 L91.0428441,38.6084295 C91.0428441,37.9285545 90.6662467,37.4609669 90.1961974,37.4609669" id="Fill-20" fill="#010202"></path>
                        <path d="M95.7038648,22.8515626 L93.0676829,22.8515626 C92.6450569,22.8515626 92.4093348,23.1790126 92.4093348,23.5536376 L92.4093348,57.5265765 C92.4093348,57.9012015 92.6450569,58.1814765 93.0676829,58.1814765 L95.7038648,58.1814765 C96.1515973,58.1814765 96.3859246,57.9012015 96.3859246,57.5265765 L96.3859246,23.5536376 C96.3859246,23.1790126 96.1515973,22.8515626 95.7038648,22.8515626" id="Fill-22" fill="#010202"></path>
                        <path d="M125.245422,15.7568586 L124.39738,15.7568586 C123.856196,15.7568586 123.479598,16.2244461 123.479598,16.9043211 L123.479598,18.2155087 C123.479598,18.8704087 123.856196,19.3629712 124.39738,19.3629712 L125.245422,19.3629712 C125.762894,19.3629712 126.139492,18.8704087 126.139492,18.2155087 L126.139492,16.9043211 C126.139492,16.2244461 125.762894,15.7568586 125.245422,15.7568586" id="Fill-24" fill="#010202"></path>
                        <path d="M126.137679,22.8515626 L123.594949,22.8515626 C123.218351,22.8515626 122.86686,23.1790126 122.912889,23.5536376 L122.912889,50.4322887 C122.912889,53.5694263 121.525058,54.4352264 119.194338,54.4352264 L116.346146,54.4352264 L116.346146,23.5536376 C116.346146,23.1790126 116.088107,22.8515626 115.711509,22.8515626 L113.145068,22.8515626 C112.722442,22.8515626 112.463008,23.1790126 112.510431,23.5536376 L112.510431,54.4352264 L105.943688,54.4352264 L105.943688,23.5536376 C105.943688,23.1790126 105.614514,22.8515626 105.283945,22.8515626 L102.74261,22.8515626 C102.318589,22.8515626 102.106579,23.1790126 102.106579,23.5536376 L102.106579,57.4322265 C102.106579,57.946989 102.437148,58.1814765 102.907197,58.1814765 L119.21805,58.1814765 C124.161239,58.1814765 126.77371,55.8407639 126.77371,50.6875887 L126.77371,23.5536376 C126.77371,23.1790126 126.514276,22.8515626 126.137679,22.8515626" id="Fill-26" fill="#010202"></path>
                        <g id="Group-30" transform="translate(121.348057, 0.986504)">
                            <mask id="mask-4" fill="white">
                                <use xlink:href="#path-3"></use>
                            </mask>
                            <g id="Clip-29"></g>
                            <path d="M11.1329171,0.0051337502 C10.6517093,0.0051337502 10.2318729,0.354783764 10.1579482,0.841796283 C10.0784443,1.3773713 10.4494625,1.87687132 10.9878573,1.95595883 L22.0082136,3.59182139 C22.0584266,3.60014639 22.1072448,3.60292139 22.1546682,3.60292139 C22.635876,3.60292139 23.0557123,3.25327138 23.129637,2.76764636 C23.2091409,2.23068384 22.8381227,1.73257132 22.2997279,1.65209632 L11.2793716,0.0162337506 C11.2291586,0.00790875031 11.1817352,0.0051337502 11.1329171,0.0051337502 M1.83932968,3.53632139 C1.35951668,3.53632139 0.936890687,3.8859714 0.864360814,4.37298392 C0.784856914,4.90855895 1.15587511,5.40805896 1.69426994,5.48714647 L16.369016,7.66552155 C16.419229,7.67384655 16.4680471,7.67662156 16.5154705,7.67662156 C16.9966783,7.67662156 17.4165147,7.32697154 17.4904394,6.83995902 C17.5699433,6.3057715 17.1989251,5.80627148 16.6605303,5.72579648 L1.98578423,3.54742139 C1.93696605,3.53909639 1.88814787,3.53632139 1.83932968,3.53632139 M44.2916223,57.1298985 C43.3640768,57.480936 42.3835287,57.7709235 41.3625313,57.9832111 C41.4211131,58.0012486 41.4796949,58.0192861 41.5382767,58.0359361 C42.9316872,58.4729986 44.0907703,59.1778486 44.7923574,60.2739736 C45.2610119,61.0093487 45.5608951,61.9459112 45.5636847,63.2321238 C45.5664743,65.0733363 44.9151002,67.6235614 43.1911209,71.0104491 C43.0516404,71.2851741 43.0502456,71.6112366 43.1883313,71.8887366 C43.3250222,72.1648491 43.5872456,72.3604866 43.8913132,72.4173741 L49.8527108,73.5204367 C49.9140822,73.5315367 49.9740589,73.5370867 50.0340355,73.5370867 C50.4999004,73.5370867 50.9141576,73.2082492 51.0020303,72.7364991 C51.1024563,72.2023116 50.7495706,71.6917116 50.2139654,71.5918116 L45.5218405,70.7246241 C46.922225,67.7123614 47.5331497,65.2675863 47.5359393,63.2321238 C47.5387289,61.6364987 47.143999,60.2878486 46.4535704,59.2180861 C45.8858847,58.3300861 45.1299002,57.647436 44.2916223,57.1298985" id="Fill-28" fill="#010202" mask="url(#mask-4)"></path>
                        </g>
                        <path d="M159.61426,21.9098663 L157.714535,34.5721918 C157.642005,35.0592044 157.220774,35.4088544 156.740961,35.4088544 C156.692143,35.4088544 156.643325,35.4060794 156.593112,35.3977544 C156.467579,35.3797169 156.349021,35.3367044 156.24441,35.2770419 C156.097956,35.3464169 155.934764,35.3852669 155.765992,35.3852669 C155.711595,35.3852669 155.655803,35.3811044 155.60001,35.3741669 C154.994665,35.2839794 154.577618,34.7220418 154.66828,34.1198668 L156.467579,22.1193788 C156.421551,22.1263163 156.374127,22.1318663 156.328099,22.1388038 C155.912447,22.1707163 155.509348,22.2942038 155.099275,22.3816163 L154.485561,22.5231414 L154.178704,22.5966789 L153.877426,22.6965789 C153.478512,22.8325539 153.076808,22.9685289 152.672314,23.1031164 C152.2734,23.2418664 151.894013,23.4430539 151.502073,23.6095539 L150.916254,23.8731789 C150.726561,23.9716914 150.543841,24.0826914 150.356937,24.1881414 C149.987314,24.4059789 149.602348,24.6002289 149.242488,24.8374914 C147.789101,25.771279 146.46822,26.917354 145.291005,28.2105041 L144.466675,29.2289291 L144.261638,29.4856166 L144.080314,29.7603416 L143.717664,30.3084042 L143.346646,30.8523042 C143.229483,31.0382292 143.136031,31.2366417 143.027236,31.4281167 C142.826384,31.8180042 142.597636,32.1954042 142.412127,32.5950043 C141.67009,34.1947918 141.194462,35.9028044 140.895973,37.6427295 L140.756493,38.981667 C140.74115,39.209217 140.693727,39.4575795 140.700701,39.667092 L140.70349,40.3081171 L140.702095,40.9491421 L140.700701,41.2710421 L140.732781,41.5984921 L140.863893,42.9124547 C140.923869,43.3467422 141.03127,43.7740922 141.109379,44.2056047 C141.156802,44.4192797 141.188882,44.6385047 141.24607,44.8494047 L141.438553,45.4779423 L141.624062,46.1078673 L141.714724,46.4228298 L141.836072,46.7294673 C142.002054,47.1360048 142.165246,47.5411548 142.327044,47.9449174 C143.073264,49.5225049 144.004994,51.00158 145.115259,52.3183175 C145.390036,52.6499301 145.701077,52.9468551 145.989802,53.2645926 C146.137652,53.4186051 146.282711,53.5767801 146.43335,53.7307926 L146.915953,54.1484301 C147.242337,54.4245426 147.5478,54.7242426 147.890922,54.9753801 C148.146171,55.1599177 148.40421,55.3430677 148.659459,55.5262177 C148.83102,54.3621051 148.875654,53.2687551 148.874259,52.4820425 C148.874259,52.0990925 148.864496,51.786905 148.854732,51.5746175 L148.840784,51.331805 L148.835205,51.2582675 C148.790571,50.71853 149.19367,50.244005 149.736249,50.199605 C149.764145,50.19683 149.792041,50.1954425 149.819937,50.1954425 C150.327646,50.1954425 150.758641,50.582555 150.80188,51.0945425 C150.803275,51.1167425 150.846514,51.6467675 150.846514,52.4820425 C150.843724,53.5198926 150.782353,55.0267176 150.471311,56.6320552 C150.667979,56.7388927 150.866041,56.8429552 151.064104,56.9414677 C151.790797,57.1440427 152.538413,57.3022177 153.304161,57.4159927 C154.214969,57.5505802 155.121592,57.6171802 156.015662,57.6171802 C164.87965,57.6171802 172.654294,51.16253 174.001676,42.1743046 C174.136972,41.2668796 174.202528,40.3663921 174.202528,39.478392 C174.203923,32.9571418 170.652749,27.0269665 165.150242,23.8398789 C164.755512,23.6109414 164.579767,23.1502914 164.69693,22.7298789 C164.325912,22.6147164 163.950709,22.5106539 163.568533,22.4163039 C163.191935,22.3108538 162.794416,22.2720038 162.40387,22.1956913 L161.818052,22.0916288 L161.522353,22.0402913 L161.241998,22.0180913 C160.704998,21.9861788 160.152655,21.9279038 159.61426,21.9098663 M170.984712,26.0640415 C174.241583,29.6632166 176.174783,34.4056918 176.176177,39.478392 C176.176177,40.4635171 176.102253,41.4611296 175.951614,42.4629046 C174.789741,50.199605 169.341632,56.2407802 162.360631,58.5551303 L162.678647,58.4982428 C163.420683,58.3997303 164.113902,58.1652428 164.809909,57.9765428 C165.1614,57.8946803 165.48639,57.7503803 165.816959,57.6241177 C166.147528,57.4950802 166.472517,57.3702052 166.794717,57.2439427 C169.345816,56.1325552 171.380837,54.5022426 172.920702,52.8538926 C174.489858,51.20693 175.462037,49.4489674 176.138518,47.9768299 C176.29892,47.6049799 176.452349,47.2511673 176.596014,46.9167798 C176.727125,46.5796173 176.813603,46.2493923 176.914029,45.9496923 C177.008876,45.6486048 177.098144,45.3697173 177.177648,45.1144173 C177.255757,44.8577297 177.289232,44.6149172 177.339445,44.4026297 C177.513796,43.5479297 177.610037,43.0928297 177.610037,43.0928297 L177.608642,43.0969922 C177.608642,43.0969922 177.653276,42.6321797 177.73557,41.7594421 C177.748123,41.5416046 177.791362,41.2974046 177.788701,41.0310046 C177.787177,40.7632171 177.784388,40.4704546 177.781598,40.1554921 C177.774624,39.8405295 177.787177,39.500592 177.760676,39.139842 C177.721622,38.7804795 177.681172,38.3975295 177.635144,37.993767 C177.420344,36.3912044 177.006087,34.4265043 175.987879,32.3979792 C174.998962,30.3708417 173.530232,28.2229916 171.417102,26.420629 C171.276227,26.301304 171.132562,26.181979 170.984712,26.0640415" id="Fill-31" fill="#FF5F4D"></path>
                        <g id="Group-35" transform="translate(139.480525, 20.411505)">
                            <mask id="mask-6" fill="white">
                                <use xlink:href="#path-5"></use>
                            </mask>
                            <g id="Clip-34"></g>
                            <path d="M20.2373689,0.804611282 L20.1341533,1.49836131 C20.6725481,1.51639881 21.224891,1.57467381 21.761891,1.60658631 L22.040852,1.62878631 L22.3365508,1.68012382 L22.9237638,1.78418632 C23.3143092,1.86049882 23.7118287,1.89934883 24.0884262,2.00479883 C24.4706028,2.09914883 24.8458054,2.20321134 25.2154288,2.31837384 C25.2377457,2.23928634 25.2698262,2.16158634 25.31446,2.08666133 C25.3730418,1.98814883 25.4455717,1.90212383 25.52926,1.83136132 C25.1094236,1.68567382 24.6798236,1.55247381 24.2418547,1.43314881 C23.8554937,1.3110488 23.4482105,1.2610988 23.0479014,1.1695238 L22.4439508,1.04742379 L22.1384884,0.986373789 L21.8274468,0.953073788 C21.3002105,0.908673786 20.7729741,0.839298783 20.2373689,0.804611282 M17.1088207,0.897573786 C16.1268778,1.01412379 15.1449349,1.2125363 14.1671764,1.46089881 C13.7459452,1.58993631 13.3219244,1.72174882 12.895114,1.85217382 C12.4710932,1.98814883 12.0679945,2.18517384 11.6509477,2.35028634 L11.0288646,2.60974885 C10.8266178,2.71103636 10.6299503,2.81926136 10.4304931,2.92471137 C10.0371581,3.14532387 9.62429571,3.33818638 9.23932946,3.57961139 C7.68691121,4.53143643 6.27118389,5.72191148 5.00191111,7.07194903 C3.75635002,8.44557409 2.72698374,10.0189991 1.89289021,11.6937117 C1.09087719,13.3892368 0.567825217,15.2068619 0.245625205,17.0577869 C0.0126927278,18.914262 -0.0235722087,20.8123621 0.24702001,22.6660622 C0.55248236,24.5114372 1.07692913,26.3151873 1.8649941,27.9926749 C2.68234998,29.6493499 3.68660976,31.200575 4.8931163,32.5617125 C5.19020982,32.9030376 5.52635788,33.2082876 5.83879426,33.5329626 C6.00059167,33.6911376 6.15541505,33.8534751 6.31860726,34.0088751 L6.83886962,34.4362251 C6.84863326,34.4445501 6.8583969,34.4528751 6.86955534,34.4625876 C7.5767216,34.9010376 8.3201528,35.2950877 9.09426971,35.6378002 C9.12495543,35.4629752 9.15285153,35.2881502 9.17935283,35.1147126 C8.92410347,34.9315626 8.6660645,34.7484126 8.41081514,34.5638751 C8.06629824,34.3127376 7.7622307,34.0130376 7.43584627,33.7369251 L6.95324365,33.3192876 C6.80260469,33.1652751 6.65754494,33.0071001 6.50969558,32.8530876 C6.2209709,32.53535 5.90992933,32.238425 5.63515269,31.9068125 C4.52349291,30.590075 3.591763,29.1109999 2.846937,27.5334123 C2.68513959,27.1296498 2.52055257,26.7244998 2.35596555,26.3179623 L2.23461749,26.0113248 L2.14256034,25.6963623 L1.95844605,25.0664372 L1.76456812,24.4378997 C1.70738111,24.2269997 1.67530059,24.0077747 1.62927201,23.7940997 C1.55116292,23.3625872 1.44236811,22.9352372 1.38239148,22.5009496 L1.2526746,21.1869871 L1.22059407,20.8595371 L1.22198888,20.5376371 L1.22338368,19.896612 L1.22059407,19.255587 C1.21222524,19.0460745 1.26104343,18.797712 1.27638628,18.570162 L1.414472,17.2312244 C1.71435513,15.4912994 2.18998372,13.7832868 2.93202012,12.1834992 C3.11752921,11.7838992 3.34627728,11.4064992 3.54712923,11.0166117 C3.65452924,10.8251367 3.74937599,10.6267242 3.86653963,10.4407992 L4.23616303,9.89689914 L4.6002072,9.34883662 L4.78013707,9.07411161 L4.98517344,8.8174241 L5.81089815,7.79899906 C6.98671898,6.50584901 8.30899436,5.35977396 9.76238143,4.42598643 C10.1222412,4.18872392 10.5058126,3.99447391 10.8768308,3.7766364 C11.0623399,3.6711864 11.2464542,3.56018639 11.4347529,3.46167389 L12.0205711,3.19804888 C12.4139062,3.03154887 12.7932932,2.83036136 13.1922075,2.69161136 C13.5953063,2.55702385 13.9970102,2.42104885 14.3973193,2.28507384 L14.6972024,2.18517384 L15.0054544,2.11163633 L15.6177739,1.97011133 C16.0278466,1.88269882 16.4309453,1.75921132 16.8465973,1.72729882 C16.8940207,1.72036132 16.941444,1.71481132 16.9874726,1.70787382 L17.1088207,0.897573786 M29.5421147,3.7572114 C30.2409121,4.34551142 30.8964706,4.97821145 31.5046057,5.65253647 C31.652455,5.77047398 31.79612,5.88979898 31.9369953,6.00912399 C34.0487304,7.81148656 35.5188552,9.95933665 36.5077721,11.9864742 C37.5259799,14.0149993 37.9388423,15.9796994 38.1550371,17.5822619 C38.1996709,17.9860245 38.241515,18.3689745 38.2805696,18.728337 C38.3070709,19.089087 38.2931228,19.4290245 38.3014917,19.743987 C38.3042813,20.0589495 38.3070709,20.3517121 38.3084657,20.6194996 C38.3112553,20.8858996 38.2680163,21.1300996 38.2540683,21.3479371 C38.1717748,22.2206746 38.1285358,22.6854872 38.1285358,22.6854872 L38.1299306,22.6813247 C38.1299306,22.6813247 38.033689,23.1364247 37.8579436,23.9911247 C37.8091254,24.2034122 37.7756501,24.4462247 37.697541,24.7029122 C37.6166423,24.9582122 37.5273747,25.2370998 37.4339228,25.5381873 C37.332102,25.8378873 37.2456241,26.1681123 37.1159072,26.5052748 C36.9722422,26.8396623 36.8188137,27.1934748 36.6570163,27.5653248 C35.9819305,29.0374624 35.0083565,30.795425 33.4392005,32.4423875 C31.8993356,34.0907376 29.8643147,35.7210502 27.3146107,36.8324377 C26.9924107,36.9587002 26.6660263,37.0835752 26.3368522,37.2126127 C26.0062834,37.3388752 25.6798989,37.4831752 25.328408,37.5650377 C24.6324002,37.7537378 23.939182,37.9882253 23.1985404,38.0867378 L22.8805248,38.1436253 C21.7214416,38.5265753 20.5205143,38.8096253 19.2889013,38.9789003 C20.6502312,38.9705753 21.9711118,38.8221128 23.2306209,38.5584878 C24.2502236,38.3462003 25.2321665,38.0562128 26.1597119,37.7051752 C26.6088392,37.5359002 27.0454133,37.3513627 27.4680393,37.1529502 C30.0289017,35.9444377 32.068107,34.2766626 33.5954187,32.57975 C35.147837,30.8883875 36.1186214,29.1123874 36.7937072,27.6263748 C36.9541098,27.2503623 37.1061436,26.8923873 37.2484137,26.5566123 C37.3795254,26.2138998 37.4632137,25.8808998 37.5622449,25.5784248 C37.6570916,25.2759498 37.7435696,24.9942872 37.8230735,24.7348247 C37.9025774,24.4781372 37.9332631,24.2325497 37.9806864,24.0188747 C38.1536423,23.1572372 38.2470942,22.6979747 38.2470942,22.6979747 L38.2470942,22.6951997 C38.2470942,22.6951997 38.2931228,22.2303871 38.3796007,21.3604246 C38.3963384,21.1411996 38.4381826,20.9011621 38.4381826,20.6305996 C38.4381826,20.3600371 38.4381826,20.065887 38.4367878,19.746762 C38.4312085,19.427637 38.4479462,19.0849245 38.4242345,18.7213995 C38.38518,18.3578745 38.3447306,17.9721495 38.3028865,17.5656119 C38.0936657,15.9477869 37.6849877,13.9664368 36.6988604,11.8990617 C35.73505,9.83029914 34.2718993,7.64221155 32.1810862,5.74411148 C31.3860472,5.02954895 30.5031355,4.36077392 29.5421147,3.7572114 M10.9912049,36.2205502 C10.982836,36.2635627 10.9744672,36.3038002 10.9660984,36.3454252 C11.1711347,36.4106377 11.3761711,36.4716877 11.5839971,36.5299627 C11.3845399,36.4314502 11.1878724,36.3273877 10.9912049,36.2205502" id="Fill-33" fill="#FEFEFE" mask="url(#mask-6)"></path>
                        </g>
                        <path d="M158.544444,15.9580461 C158.520733,16.1731086 158.39799,16.3631961 158.209691,16.4755836 C158.202717,16.4783586 157.814961,16.7072961 157.233327,17.0194836 L156.590322,21.3082463 L156.467579,22.1199338 L154.66828,34.1204218 C154.577618,34.7225968 154.99606,35.2831469 155.60001,35.3733344 C155.655803,35.3816594 155.711595,35.3858219 155.765992,35.3858219 C155.934764,35.3858219 156.097956,35.3469719 156.24441,35.2762094 C155.905473,35.0805719 155.703226,34.6920718 155.764597,34.2841468 L158.238982,17.7826087 C158.311512,17.2969836 158.732743,16.9459461 159.212556,16.9459461 C159.261374,16.9459461 159.310192,16.9501086 159.35901,16.9570461 C159.392486,16.9625961 159.424566,16.9695336 159.456647,16.9764711 C159.425961,16.4783586 159.056338,16.0482336 158.544444,15.9580461" id="Fill-36" fill="#FEFEFE"></path>
                        <path d="M159.456368,16.9770261 C159.460552,17.0519511 159.457763,17.1282636 159.446604,17.2059636 L158.846838,21.2005763 C158.9375,21.1978013 159.029557,21.1964138 159.12022,21.1964138 C159.321072,21.1964138 159.519134,21.2033513 159.717196,21.2158388 L160.190035,18.0731512 C160.265355,17.5694887 159.94176,17.0977386 159.456368,16.9770261" id="Fill-38" fill="#010202"></path>
                        <path d="M159.300289,21.9037613 C159.121754,21.9037613 158.946009,21.9093113 158.774448,21.9245738 C158.761894,21.9245738 158.749341,21.9259613 158.738183,21.9259613 L156.85938,34.4453743 C156.803588,34.8213868 156.563681,35.1238619 156.244271,35.2764869 C156.348881,35.3375369 156.46744,35.3791619 156.594367,35.3985869 C156.643185,35.4055244 156.692003,35.4082994 156.740822,35.4082994 C157.220635,35.4082994 157.641866,35.0586494 157.714396,34.5730243 L159.61412,21.9093113 C159.508115,21.9051488 159.403505,21.9037613 159.300289,21.9037613" id="Fill-40" fill="#010202"></path>
                        <path d="M159.119941,21.1957201 C159.029279,21.1957201 158.938616,21.1971076 158.846559,21.1998826 L158.737764,21.9255451 C158.750317,21.9255451 158.761476,21.9241576 158.774029,21.9241576 C158.94559,21.9102826 159.121336,21.9033451 159.299871,21.9033451 C159.404481,21.9033451 159.509092,21.9061201 159.613702,21.9102826 L159.718312,21.2165326 C159.52025,21.2026576 159.320793,21.1957201 159.119941,21.1957201" id="Fill-42" fill="#010202"></path>
                        <path d="M159.212556,16.9465011 C158.732743,16.9465011 158.311512,17.2961511 158.238982,17.7831637 L155.764597,34.2833143 C155.703226,34.6926268 155.905473,35.0811269 156.24441,35.2767644 C156.563821,35.1241394 156.803727,34.8202768 156.859519,34.4456518 L158.738322,21.9262388 L158.847117,21.2005763 L159.445488,17.2059636 C159.458042,17.1282636 159.460831,17.0519511 159.456647,16.9770261 C159.424566,16.9687011 159.392486,16.9631511 159.35901,16.9576011 C159.310192,16.9506636 159.261374,16.9465011 159.212556,16.9465011" id="Fill-44" fill="#010202"></path>
                        <path d="M151.603754,19.9268513 C151.528434,19.9268513 151.453115,19.9351763 151.376401,19.9532138 C143.569676,21.7763888 137.287473,28.1658266 136.030753,36.5380019 C135.880114,37.5411645 135.80619,38.538777 135.807584,39.5252895 C135.807584,47.6144149 140.725668,54.8696526 148.091634,57.9790403 C147.652271,59.2957778 146.982764,60.4751529 146.04127,61.2285654 C145.26018,61.8515529 144.297764,62.2442154 142.923881,62.2483779 L142.904353,62.2483779 C141.010208,62.2483779 138.312655,61.4255904 134.679187,59.1556403 C134.520179,59.0571278 134.33746,59.0071778 134.15474,59.0071778 C134.034787,59.0071778 133.914834,59.0279903 133.80046,59.0710028 C133.511735,59.1820028 133.289961,59.4234278 133.206273,59.7203528 L131.556218,65.5228781 C131.408369,66.0445781 131.712436,66.5857031 132.236883,66.7341656 C132.32615,66.7577531 132.416813,66.7702406 132.50608,66.7702406 C132.93568,66.7702406 133.33041,66.4885781 133.453153,66.0570656 L134.751717,61.4908029 C138.054616,63.391678 140.710325,64.207528 142.923881,64.2116905 L142.951777,64.2116905 C144.712021,64.2116905 146.180751,63.649753 147.285437,62.7520405 C148.398491,61.8487779 149.147502,60.6499779 149.664975,59.3984528 C149.7654,59.1528653 149.857458,58.9045028 149.942541,58.6561403 C150.931458,58.9627778 151.955245,59.1986528 153.012507,59.3554403 C154.020951,59.5066778 155.025211,59.5788278 156.015523,59.5788278 C156.947253,59.5788278 157.866429,59.5150028 158.770263,59.3901278 C158.729814,59.3901278 158.690759,59.3915153 158.651705,59.3915153 C158.463406,59.3915153 158.276502,59.3887403 158.088203,59.3831903 L158.053333,59.3831903 C157.657209,59.3831903 157.269453,59.3165903 156.873328,59.2874528 L156.261009,59.2291778 L155.954151,59.1972653 L155.644505,59.1389903 C154.829938,58.9669403 153.993055,58.8503903 153.189647,58.5645653 C151.545172,58.1191778 149.971832,57.3407902 148.465442,56.4305902 C148.100003,56.1822277 147.731774,55.9366402 147.362151,55.6868902 C147.009265,55.4413027 146.689855,55.1443777 146.349522,54.8738151 C141.121792,51.62429 137.778444,45.8536773 137.778444,39.5252895 C137.778444,38.635902 137.845395,37.734027 137.980691,36.8279894 C139.111878,29.2730516 144.784551,23.5107639 151.828317,21.8638013 C152.358343,21.7389263 152.687517,21.2116763 152.561985,20.6830388 C152.45598,20.2321013 152.051486,19.9268513 151.603754,19.9268513 M165.648048,22.0108763 C165.41651,22.0108763 165.189157,22.0927388 165.009227,22.2425888 C166.45843,22.7476389 167.803022,23.4039264 169.023477,24.1698264 C168.129406,23.4164139 167.166991,22.7379264 166.143204,22.1440763 C165.986986,22.0538888 165.816819,22.0108763 165.648048,22.0108763" id="Fill-46" fill="#010202"></path>
                        <path d="M164.696372,22.7302951 C164.579209,23.1493201 164.754954,23.6113576 165.151079,23.8402952 C170.653585,27.0273828 174.20476,32.957558 174.203365,39.4774208 C174.203365,40.3668083 174.137809,41.2672958 174.001118,42.1747209 C172.655131,51.1629462 164.880487,57.6175965 156.015104,57.6175965 C155.121034,57.6175965 154.215806,57.5509965 153.303603,57.416409 C152.537855,57.302634 151.791634,57.1430715 151.064941,56.941884 C151.82232,57.319284 152.599226,57.641184 153.39845,57.879834 C154.164198,58.176759 154.967606,58.3085715 155.748697,58.495884 L156.016499,58.556934 L156.323356,58.5943965 L156.934281,58.6693215 C157.335985,58.709559 157.750242,58.790034 158.135208,58.795584 C158.521569,58.8052965 158.906536,58.812234 159.288712,58.8191715 C159.429588,58.8191715 159.569068,58.828884 159.708549,58.828884 C159.758762,58.828884 159.810369,58.8274965 159.861977,58.8247215 C160.05446,58.809459 160.245549,58.7941965 160.436637,58.778934 C160.818814,58.7497965 161.198201,58.720659 161.573403,58.6915215 C161.838416,58.651284 162.099245,58.6027215 162.360073,58.5555465 C169.342469,56.2411964 174.789183,50.1986337 175.952451,42.4633209 C176.10309,41.4615459 176.175619,40.4639333 176.175619,39.4774208 C176.174225,34.4061081 174.242419,29.6636329 170.985549,26.0630702 C169.222515,24.6505952 167.085674,23.4739951 164.696372,22.7302951 M149.819379,50.1944712 C149.791483,50.1944712 149.763587,50.1958587 149.735691,50.1986337 C149.193112,50.2444212 148.790013,50.7175587 148.836042,51.2586837 L148.841621,51.3322212 L148.855569,51.5750338 C148.863938,51.7873213 148.875096,52.0995088 148.875096,52.4824588 C148.875096,53.2677838 148.830463,54.3611339 148.658901,55.5252464 C148.746774,55.5876839 148.834647,55.6501214 148.92252,55.7125589 C149.428834,56.0372339 149.944912,56.3466464 150.470754,56.6324715 C150.781795,55.0271339 150.844561,53.5203088 150.847351,52.4824588 C150.847351,51.6457963 150.802717,51.1157712 150.801322,51.0949587 C150.758083,50.5829712 150.327089,50.1944712 149.819379,50.1944712" id="Fill-48" fill="#010202"></path>
                        <path d="M165.009646,22.2431438 C164.925957,22.3139063 164.853427,22.3985439 164.794846,22.4984439 C164.750212,22.5733689 164.718131,22.6510689 164.695814,22.7301564 C167.086511,23.4738564 169.221957,24.6504564 170.984991,26.0629315 C170.376856,25.389994 169.721298,24.7572939 169.0225,24.1689939 C167.80344,23.4044814 166.458848,22.7468064 165.009646,22.2431438 M146.349941,54.8743701 C146.690273,55.1449327 147.008289,55.4418577 147.362569,55.6874452 C147.730798,55.9358077 148.099027,56.1827827 148.464466,56.4311452 C149.970855,57.3413452 151.544196,58.1183453 153.188671,58.5651203 C153.993474,58.8509453 154.830357,58.9674953 155.644923,59.1395453 L155.953175,59.1978203 L156.261427,59.2283453 L156.873746,59.2866203 C157.269871,59.3171453 157.657627,59.3837453 158.053752,59.3837453 L158.088622,59.3837453 C158.276921,59.3879078 158.463824,59.3906828 158.650728,59.3906828 C158.691178,59.3906828 158.730232,59.3892953 158.769287,59.3892953 C160.0009,59.2200203 161.201827,58.9383578 162.36091,58.5554078 C162.100082,58.6025828 161.837858,58.6511453 161.57424,58.6927703 C161.199038,58.7205203 160.819651,58.7510453 160.436079,58.7787953 C160.244991,58.7940578 160.053902,58.8093203 159.862814,58.8245828 C159.809812,58.8273578 159.759599,58.8287453 159.707991,58.8287453 C159.56851,58.8287453 159.430425,58.8190328 159.288154,58.8190328 C158.907373,58.8120953 158.522406,58.8051578 158.13465,58.7954453 C157.749684,58.7898953 157.336822,58.7094203 156.933723,58.6691828 L156.322798,58.5942578 L156.015941,58.5567953 L155.748139,58.4957453 C154.967048,58.3084328 154.16364,58.1766203 153.397892,57.8810828 C152.600063,57.6410453 151.821762,57.3191452 151.064383,56.9417452 C150.856557,56.8834702 150.65152,56.8224202 150.446484,56.7572077 C150.454853,56.7155827 150.463222,56.6739577 150.47159,56.6323327 C149.945749,56.3465077 149.429671,56.0370952 148.921962,55.7124202 C148.835484,55.6499827 148.747611,55.5875452 148.659738,55.5251077 C148.633237,55.6985452 148.605341,55.8733702 148.574655,56.0495827 C147.800538,55.7068702 147.057107,55.3128202 146.349941,54.8743701" id="Fill-50" fill="#010202"></path>
                        <path d="M152.612337,14.2271398 C152.608153,14.2271398 152.605363,14.2271398 152.601179,14.2271398 L152.583047,14.2271398 L152.584441,14.2271398 L152.581652,14.2271398 L152.583047,14.2271398 L152.577467,14.2271398 C152.45333,14.2271398 152.069758,14.3367523 151.655501,14.5296148 C151.256587,14.7099898 150.810249,14.9528023 150.383439,15.2025523 C150.820013,15.4967023 151.380724,15.8602273 151.935857,16.1751899 C152.62768,16.5747899 153.351584,16.8842024 153.657047,16.8883649 L153.658441,16.8883649 L153.708654,16.8897524 L153.719813,16.8897524 C154.002958,16.8897524 154.49393,16.7676524 155.02814,16.5678524 C155.111829,16.5373274 155.196912,16.5054149 155.28339,16.4707274 C155.629301,16.3056149 155.96266,16.1349524 156.261148,15.9781648 C156.333678,15.9407023 156.403418,15.9032398 156.471764,15.8671648 C155.944527,15.5702398 155.276416,15.2094898 154.619462,14.9028523 C154.195441,14.7044398 153.77421,14.5296148 153.412956,14.4075148 C153.06286,14.2881898 152.758792,14.2271398 152.612337,14.2271398" id="Fill-52" fill="#3EB674"></path>
                        <path d="M154.015372,12.3504072 C154.820175,12.7791447 155.665427,13.1815197 156.399094,13.5131322 C156.764533,13.6796323 157.102076,13.8280948 157.39638,13.9543573 C157.385222,13.8683323 157.372668,13.7781448 157.360115,13.6851823 C156.71711,13.3438572 155.987627,12.9858822 155.316725,12.7236447 C154.846676,12.5418822 154.411497,12.4017447 154.015372,12.3504072 M152.09333,12.8401947 C151.977562,12.8956947 151.861793,12.9553572 151.744629,13.0150197 C151.892479,12.9664572 152.038933,12.9262197 152.186782,12.8970822 C152.156097,12.8776572 152.124016,12.8596197 152.09333,12.8401947 M158.859531,14.5301698 C158.893006,14.8076698 158.908349,14.9686198 158.909744,14.9727823 C158.933455,15.2128198 158.831635,15.4459198 158.639151,15.5902198 C158.598702,15.6207448 158.556858,15.6457198 158.513619,15.6665323 C158.523383,15.6984448 158.533146,15.7317448 158.538726,15.7664323 C158.932061,15.5485948 159.180336,15.4029073 159.183126,15.4015198 C159.303079,15.3307573 159.375609,15.2058823 159.377003,15.0671323 C159.378398,14.9297698 159.308658,14.8035073 159.191494,14.7299698 C159.188705,14.7285823 159.067357,14.6536573 158.859531,14.5301698 M150.383299,15.2017198 C150.123865,15.3543448 149.872801,15.5069698 149.646842,15.6498823 C150.27311,16.0841698 151.338741,16.7904074 152.277445,17.2441199 C152.407162,17.3051699 152.532694,17.3620574 152.655437,17.4133949 C152.892554,17.3967449 153.327733,17.2885199 153.799177,17.1123074 C154.269227,16.9388699 154.786699,16.7085449 155.28325,16.4712824 C155.196772,16.5045824 155.113084,16.5378824 155.029396,16.5684074 C154.49379,16.7682074 154.002819,16.8903074 153.719673,16.8903074 L153.708515,16.8903074 L153.659697,16.8889199 L153.656907,16.8889199 C153.351445,16.8847574 152.627541,16.5753449 151.935717,16.1743574 C151.380585,15.8607823 150.819873,15.4972573 150.383299,15.2017198" id="Fill-54" fill="#FEFEFE"></path>
                        <path d="M151.744769,13.0157135 C151.528574,13.0878635 151.310984,13.1794385 151.083631,13.2793385 C150.582896,13.5068885 150.059844,13.7954885 149.580031,14.079926 C148.61901,14.6474135 147.828155,15.2038011 147.819787,15.2093511 C147.638462,15.3370011 147.529667,15.5423511 147.526822,15.7629636 C147.524088,15.9835761 147.627304,16.1917011 147.805839,16.3221261 C147.823971,16.3332261 149.55074,17.6152762 151.023654,18.3284512 C151.525784,18.5643262 151.979096,18.7530262 152.474252,18.7863262 L152.470067,18.7863262 L152.581652,18.7891012 C153.120047,18.7835512 153.673784,18.6184387 154.277735,18.3992137 C154.877501,18.1786012 155.507953,17.8927762 156.086797,17.6097262 C156.508029,17.4029887 156.901364,17.1976386 157.233327,17.0186511 L157.254249,16.8812886 C157.287725,16.6565136 157.386756,16.4567136 157.530421,16.3013136 C157.385361,16.3748511 157.236117,16.4511636 157.082688,16.5247011 C156.509423,16.8063636 155.88734,17.0894136 155.302917,17.3044761 C154.715704,17.5181512 154.177309,17.6721637 153.708654,17.6749387 L153.613808,17.6721637 L153.615202,17.6721637 C153.31253,17.6541262 152.994514,17.5556137 152.655576,17.4140887 C152.634654,17.4154762 152.615127,17.4154762 152.596995,17.4154762 L152.581652,17.4154762 L152.550966,17.4140887 L152.546782,17.4140887 C152.463093,17.4140887 152.214818,17.3516511 151.930278,17.2295511 C151.640158,17.1074511 151.301221,16.9340136 150.958098,16.7383761 C150.416914,16.4317386 149.865966,16.0765386 149.436366,15.7851636 C149.501922,15.7435386 149.568872,15.6991386 149.640008,15.6547386 C149.642797,15.6533511 149.645587,15.6519636 149.646982,15.6505761 C149.317807,15.4216386 149.109982,15.2690136 149.105797,15.2676261 C149.005371,15.1913136 148.945394,15.0719886 148.946789,14.9471136 C148.948184,14.820851 149.01095,14.7029135 149.114166,14.6307635 C149.119745,14.626601 149.906415,14.074376 150.856278,13.5124385 C151.142213,13.3431635 151.443491,13.172501 151.744769,13.0157135 M158.538865,15.7657386 C158.434255,15.8226261 158.321275,15.8850636 158.198533,15.9516636 C158.247351,15.9447261 158.297564,15.9405636 158.347777,15.9405636 C158.402174,15.9405636 158.457966,15.9447261 158.513759,15.9530511 C158.523522,15.9544386 158.534681,15.9572136 158.544444,15.9586011 C158.545839,15.9364011 158.547234,15.9142011 158.548629,15.8906136 C158.548629,15.8489886 158.545839,15.8073636 158.538865,15.7657386" id="Fill-56" fill="#010202"></path>
                        <path d="M158.348195,15.9411186 C158.297982,15.9411186 158.247769,15.9438936 158.198951,15.9508311 C157.995309,16.0590561 157.769351,16.1783811 157.530839,16.3018686 C157.387174,16.4572686 157.288143,16.6556811 157.253273,16.8804561 L157.233746,17.0192061 C157.813985,16.7070186 158.203135,16.4780811 158.208715,16.4753061 C158.398408,16.3643061 158.521151,16.1728311 158.544863,15.9577686 C158.533704,15.9563811 158.523941,15.9549936 158.514177,15.9536061 C158.458385,15.9452811 158.402593,15.9411186 158.348195,15.9411186" id="Fill-58" fill="#010202"></path>
                        <path d="M152.929795,13.3260972 C152.841922,13.3607847 152.75126,13.4010222 152.659203,13.4426472 C151.991091,13.7451223 151.21279,14.2043848 150.60605,14.5873348 C150.38846,14.7246973 150.191792,14.8523473 150.03139,14.9591848 C150.042548,14.9675098 150.055102,14.9758348 150.067655,14.9841598 C150.162502,15.0507598 150.268507,15.1242973 150.384276,15.2019973 C150.809691,14.9536348 151.257424,14.7108223 151.656338,14.5304473 C152.0692,14.3361973 152.452772,14.2279723 152.578304,14.2279723 L152.583883,14.2279723 L152.602016,14.2279723 C152.604806,14.2279723 152.60899,14.2265848 152.61178,14.2265848 C152.758234,14.2265848 153.063696,14.2876348 153.413793,14.4083473 C153.775047,14.5290598 154.194884,14.7052723 154.618904,14.9036848 C155.275858,15.2103223 155.945364,15.5710723 156.471206,15.8679973 C156.404255,15.9026848 156.33312,15.9401473 156.261985,15.9776098 C155.962102,16.1343974 155.628743,16.3050599 155.282832,16.4715599 C156.005341,16.1871224 156.794801,15.8000098 157.437806,15.4642348 C156.812933,15.2047723 155.709642,14.7302473 154.531032,14.1558223 C154.001006,13.8963598 153.455637,13.6174723 152.929795,13.3260972" id="Fill-60" fill="#010202"></path>
                        <path d="M152.18734,12.897221 C152.039491,12.9263585 151.893036,12.966596 151.745187,13.0151585 C151.443909,13.1733335 151.142631,13.3426085 150.855301,13.5118835 C149.906834,14.073821 149.118769,14.6274335 149.114584,14.6302085 C149.011369,14.7023585 148.948603,14.820296 148.947183,14.9465586 C148.945813,15.0728211 149.004395,15.1921461 149.106216,15.2670711 C149.1104,15.2684586 149.316831,15.4224711 149.6474,15.6500211 C149.873358,15.5071086 150.124423,15.3544836 150.383857,15.2018586 C150.269483,15.1241586 150.162083,15.0506211 150.067236,14.9840211 C150.054683,14.9756961 150.04213,14.9673711 150.030971,14.9590461 C150.191374,14.8522086 150.388042,14.7245585 150.607026,14.587196 C151.212371,14.204246 151.990673,13.7449835 152.658785,13.443896 C152.750842,13.4008835 152.841504,13.360646 152.929377,13.3259585 C152.676917,13.185821 152.427247,13.041521 152.18734,12.897221 M157.437387,15.4640961 C156.794382,15.7998711 156.004922,16.1869836 155.282413,16.4714211 C154.787257,16.7086836 154.26839,16.9390086 153.79834,17.1124461 C153.328291,17.2886586 152.891717,17.3968837 152.6546,17.4135337 C152.994933,17.5550587 153.312948,17.6549587 153.615621,17.6729962 L153.612831,17.6729962 L153.709073,17.6757712 C154.177727,17.6716087 154.714727,17.5189837 155.303335,17.3039211 C155.887759,17.0888586 156.509842,16.8058086 157.083107,16.5255336 C157.236535,16.4506086 157.38578,16.3756836 157.530839,16.3021461 C157.769351,16.1786586 157.995309,16.0593336 158.198951,15.9511086 C158.320299,15.8858961 158.434673,15.8234586 158.537889,15.7665711 C158.532309,15.7318836 158.523941,15.6985836 158.512782,15.6666711 C158.42212,15.7082961 158.323089,15.7304961 158.222663,15.7304961 C158.13758,15.7304961 158.051102,15.7138461 157.967413,15.6805461 C157.964624,15.6791586 157.766561,15.6014586 157.437387,15.4640961" id="Fill-62" fill="#010202"></path>
                        <path d="M150.104059,2.51261556 C150.108244,2.61112806 150.113823,2.72074057 150.119402,2.84006557 C150.681509,3.02460308 151.56721,3.32846559 152.514283,3.69892811 C153.303742,4.00834062 154.136441,4.36492813 154.86453,4.74649065 C155.514509,5.09197816 156.0808,5.43469068 156.496452,5.86065319 C156.394631,5.65807818 156.291415,5.49157818 156.1882,5.37225317 C155.963636,5.09197816 155.416872,4.71735315 154.744576,4.36770313 C153.734737,3.83906561 152.434779,3.32846559 151.395649,2.95522808 C150.879571,2.77069057 150.427654,2.61806556 150.104059,2.51261556 M150.214249,4.32191563 C150.264462,4.94212816 150.332807,5.62200318 150.426259,6.27829071 C150.595031,7.50345326 150.88515,8.6717283 151.208745,9.11572832 C151.458415,9.48341584 152.073524,9.97875336 152.836483,10.4574409 C153.983013,11.1831034 155.46848,11.9087659 156.661039,12.449891 C156.854917,12.5373035 157.040426,12.619166 157.214776,12.696866 C157.087849,11.8837909 156.923262,10.9569409 156.723805,10.0744909 C156.562008,9.36270333 156.377893,8.6772783 156.175646,8.11117828 C155.977584,7.54646576 155.748836,7.09691574 155.574485,6.89156573 C155.402924,6.67234073 154.877083,6.29910321 154.221524,5.9619407 C153.232607,5.44301568 151.941018,4.93519066 150.908862,4.56472814 C150.660587,4.47592814 150.426259,4.39406563 150.214249,4.32191563" id="Fill-64" fill="#3EB674"></path>
                        <path d="M149.807105,1.59325802 L149.452825,1.65569553 C149.352399,1.73200803 149.293817,1.85133303 149.296511,1.97620804 C149.296511,1.98037054 149.302186,2.22040805 149.318923,2.61445806 C149.38169,2.61584556 149.445851,2.62555806 149.508617,2.64498307 C149.512801,2.64637057 149.742944,2.71713307 150.119542,2.84062057 C150.113962,2.71990807 150.108383,2.61029556 150.104199,2.51317056 C150.427794,2.61862056 150.87971,2.76985807 151.395788,2.95578308 C152.434918,3.32763309 153.733482,3.83823311 154.744716,4.36825813 C155.417012,4.71652065 155.963776,5.09114566 156.188339,5.37142067 C156.29016,5.49213318 156.39477,5.65863318 156.496591,5.85982069 C156.546804,5.91254569 156.595622,5.9652707 156.641651,6.0193832 C157.108911,6.59797072 157.412978,7.39578325 157.694729,8.32263329 C158.270783,10.2554209 158.633433,12.7348835 158.800809,14.0530085 C158.816152,14.0446835 158.831495,14.034971 158.845443,14.023871 C158.957028,13.9420085 159.015609,13.8088085 159.000267,13.671446 C158.997477,13.6589585 158.605537,9.78783335 157.797944,7.07388324 C157.523168,6.1650707 157.216311,5.38668317 156.799264,4.87330815 C156.429641,4.43208314 155.827085,4.05190812 155.112944,3.67450811 C154.398804,3.29988309 153.575869,2.94745808 152.790594,2.63943306 C151.222833,2.02477054 149.812684,1.59464552 149.807105,1.59325802 M149.691336,1.96927054 L150.086066,1.96094554 L149.691336,1.96927054 M150.034458,4.26003313 C150.076303,5.10502066 150.164175,6.38013321 150.332947,7.57060826 C150.419425,8.17833328 150.528219,8.76247081 150.656542,9.24670833 C150.729071,9.52420834 150.81276,9.76979585 150.893658,9.95849586 C151.281414,10.3539334 151.808651,10.7354959 152.413996,11.1198334 C153.216009,11.6262709 154.151924,12.1216084 155.047388,12.558671 C155.906589,12.9790835 156.728129,13.3453835 157.350212,13.613171 C157.311157,13.3315085 157.266524,13.0234835 157.214916,12.6960335 C157.040565,12.619721 156.855056,12.536471 156.661178,12.4490585 C155.46862,11.9093209 153.983152,11.1822709 152.836622,10.4566084 C152.073664,9.97792086 151.458555,9.48397084 151.20749,9.11489582 C150.88529,8.6722833 150.593775,7.50262076 150.426399,6.27745821 C150.332947,5.62117068 150.264601,4.94268316 150.214388,4.32108313 C150.153017,4.30027063 150.091645,4.28084563 150.034458,4.26003313" id="Fill-66" fill="#FEFEFE"></path>
                        <path d="M149.305812,2.61487431 C149.157963,2.61487431 149.011508,2.66204932 148.89016,2.75362432 C148.71302,2.88682432 148.609804,3.09633683 148.615384,3.31556184 C148.618173,3.33776184 148.679545,6.62336197 149.184464,9.01541207 C149.36021,9.8201621 149.561062,10.5208496 149.92929,11.0633621 C150.36168,11.6683122 151.050714,12.1775247 151.868069,12.7019997 C151.943389,12.7477872 152.017314,12.7935747 152.092633,12.8407497 C152.173532,12.8018997 152.253036,12.7630497 152.331145,12.7283622 C152.820721,12.5105247 153.264269,12.3467997 153.678527,12.3301497 L153.727345,12.3301497 C153.820797,12.3301497 153.917038,12.3370872 154.014675,12.3509622 C153.519519,12.0859497 153.038311,11.8126122 152.608711,11.5420497 C151.859701,11.0744622 151.265514,10.5846746 151.064662,10.2808121 C151.013054,10.2100496 150.954472,10.1004371 150.894495,9.95891211 C150.766173,9.8284871 150.654589,9.6966746 150.559742,9.56208709 C150.234752,9.08894957 150.029716,8.40907454 149.85955,7.62097451 C149.562456,6.21682446 149.420186,4.47412439 149.353236,3.30029934 L149.305812,3.30168684 L149.353236,3.30029934 C149.337893,3.04083683 149.326734,2.80912432 149.318365,2.61487431 L149.305812,2.61487431 M157.349654,13.6121998 L157.359418,13.6857373 C157.985685,14.0187373 158.531054,14.3336998 158.860228,14.5293373 C158.84349,14.3961373 158.823963,14.2365748 158.801646,14.0534248 C158.74167,14.0867248 158.674719,14.1033748 158.607768,14.1033748 C158.55895,14.1033748 158.510132,14.0950498 158.461314,14.0756248 C158.458524,14.0742373 158.020555,13.9007998 157.349654,13.6121998" id="Fill-68" fill="#010202"></path>
                        <path d="M153.91662,13.127546 C154.040758,13.1705585 154.167685,13.2177335 154.297402,13.2676835 C155.738236,13.8337835 157.405028,14.8078085 157.999215,15.1643961 C158.07035,15.1255461 158.137301,15.0894711 158.200067,15.0547836 C158.190303,15.0492336 158.18054,15.0422961 158.169381,15.0367461 C157.610064,14.7106835 156.734126,14.2222835 155.870742,13.818521 C155.131495,13.4674835 154.374116,13.1899835 153.91662,13.127546" id="Fill-70" fill="#010202"></path>
                        <path d="M153.727205,12.3301497 L153.678387,12.3301497 C153.26413,12.3467997 152.820582,12.5105247 152.331005,12.7283622 C152.252896,12.7630497 152.173392,12.8018997 152.092494,12.8407497 C152.124574,12.8587872 152.15526,12.8782122 152.18734,12.8976372 C152.304504,12.8754372 152.423062,12.8601747 152.54441,12.8546247 L152.5472,12.8546247 L152.601597,12.8532372 C153.029803,12.8587872 153.459403,12.9683997 153.916899,13.1279622 C154.373,13.1903997 155.131774,13.4665122 155.871021,13.8189373 C156.734405,14.2213123 157.610343,14.7110998 158.16966,15.0371623 C158.179424,15.0427123 158.190582,15.0482623 158.200346,15.0538123 C158.13758,15.0898873 158.070629,15.1259623 157.999494,15.1648123 C158.138974,15.2494498 158.219873,15.2980123 158.222663,15.3007873 C158.362143,15.3868123 158.463964,15.5158498 158.512782,15.6656998 C158.557416,15.6462748 158.59926,15.6212998 158.638315,15.5907748 C158.832193,15.4464748 158.934013,15.2133748 158.908907,14.9733373 C158.908907,14.9691748 158.892169,14.8082248 158.860089,14.5293373 C158.530915,14.3336998 157.985546,14.0187373 157.359278,13.6857373 C157.371831,13.7786998 157.384385,13.8674998 157.395543,13.9535248 C157.102634,13.8286498 156.763696,13.6801873 156.399652,13.5136872 C155.665985,13.1820747 154.820733,12.7783122 154.01593,12.3509622 C153.916899,12.3370872 153.820657,12.3301497 153.727205,12.3301497" id="Fill-72" fill="#010202"></path>
                        <path d="M153.746314,13.1146422 C153.740735,13.1146422 153.733761,13.1146422 153.726787,13.1146422 L153.700286,13.1146422 C153.545462,13.1160297 153.259527,13.1937297 152.930353,13.3255422 C153.456195,13.6169173 154.000169,13.8958048 154.530195,14.1552673 C155.708805,14.7310798 156.812096,15.2042173 157.436969,15.4636798 C157.46626,15.4498048 157.495551,15.4331548 157.524842,15.4192798 C157.696403,15.3290923 157.85541,15.2430673 157.999075,15.1653673 C157.406283,14.8087798 155.738096,13.8333673 154.297262,13.2672672 C154.167545,13.2187047 154.040618,13.1715297 153.91648,13.1271297 C153.853714,13.1188047 153.796527,13.1146422 153.746314,13.1146422" id="Fill-74" fill="#010202"></path>
                        <path d="M152.601458,12.8537922 L152.547061,12.8537922 L152.544271,12.8537922 C152.424318,12.8593422 152.304364,12.8746047 152.187201,12.8968047 C152.427107,13.0424922 152.676777,13.1854047 152.929237,13.3255422 C153.259806,13.1937297 153.545741,13.1160297 153.700565,13.1146422 L153.727066,13.1146422 C153.73404,13.1146422 153.739619,13.1146422 153.746593,13.1146422 C153.796806,13.1146422 153.853993,13.1188047 153.916759,13.1271297 C153.459263,12.9689547 153.029663,12.8593422 152.601458,12.8537922 M157.999354,15.1653673 C157.855689,15.2430673 157.695287,15.3290923 157.525121,15.4192798 C157.49583,15.4331548 157.466539,15.4498048 157.437248,15.4636798 C157.767817,15.6010423 157.964484,15.6801298 157.967274,15.6815173 C158.050962,15.7148173 158.13744,15.7300798 158.222523,15.7300798 C158.322949,15.7300798 158.42198,15.7078798 158.512643,15.6662548 C158.463824,15.5164048 158.362004,15.3859798 158.222523,15.2999548 C158.219734,15.2985673 158.138835,15.2486173 157.999354,15.1653673" id="Fill-76" fill="#010202"></path>
                        <path d="M150.118984,2.84048182 L150.120378,2.88488182 C150.141301,3.28170684 150.170591,3.77843186 150.21383,4.32094438 C150.425841,4.39448188 150.660168,4.47634439 150.908443,4.56514439 C151.941994,4.93560691 153.232189,5.44204443 154.221106,5.96235695 C154.878059,6.29951946 155.403901,6.67136948 155.575462,6.89059448 C155.749812,7.09733199 155.97856,7.54688201 156.175228,8.11159453 C156.377475,8.67769455 156.561589,9.36173208 156.723386,10.0735196 C156.922844,10.9573571 157.087431,11.8842072 157.214358,12.6972822 C157.572823,12.8540697 157.889444,12.9886572 158.139114,13.0941072 C158.123771,12.9650697 158.105638,12.8193822 158.084716,12.6598197 C157.953605,11.6594322 157.723462,10.1179196 157.397077,8.67769455 C157.152987,7.57740701 156.830786,6.52429447 156.496033,5.85968194 C156.080381,5.43510693 155.515485,5.09239441 154.864111,4.7469069 C154.136023,4.36534438 153.303324,4.00875687 152.513864,3.69934436 C151.568186,3.32888184 150.68109,3.02501933 150.118984,2.84048182" id="Fill-78" fill="#010202"></path>
                        <path d="M149.318784,2.61487431 C149.327153,2.80912432 149.338311,3.04083683 149.352259,3.30029934 L149.995264,3.28781184 L149.352259,3.30029934 C149.41921,4.47412439 149.562875,6.21682446 149.859968,7.62097451 C150.030135,8.40907454 150.233776,9.08894957 150.560161,9.56208709 C150.655007,9.6966746 150.766592,9.8284871 150.893519,9.95891211 C150.81262,9.7688246 150.728932,9.52323709 150.656402,9.24712458 C150.52808,8.76288706 150.419285,8.17736203 150.334202,7.56963701 C150.164036,6.38054946 150.076163,5.10543691 150.034319,4.26044938 C150.091506,4.27987438 150.152877,4.30068688 150.214249,4.32149938 C150.17101,3.77898686 150.140324,3.28087434 150.120797,2.88543682 L150.119402,2.84103682 C149.742805,2.71616182 149.512662,2.64539932 149.508477,2.64401182 C149.445711,2.62597431 149.38155,2.61626181 149.318784,2.61487431 M156.496452,5.86023694 C156.831205,6.52346197 157.153405,7.57657451 157.397496,8.67686205 C157.722485,10.1170871 157.954023,11.6599872 158.085135,12.6603747 C158.104662,12.8199372 158.122795,12.9642372 158.139532,13.0946622 C157.889862,12.9892122 157.573241,12.8546247 157.214776,12.6964497 C157.266384,13.0225122 157.311018,13.3319247 157.350072,13.6121998 C158.020974,13.9007998 158.458943,14.0742373 158.461732,14.0756248 C158.509156,14.0950498 158.559369,14.1033748 158.608187,14.1033748 C158.675137,14.1033748 158.742088,14.0867248 158.80067,14.0534248 C158.633293,12.7352997 158.270644,10.2544496 157.694589,8.32166204 C157.412839,7.3961995 157.108771,6.59838697 156.641511,6.01979945 C156.595483,5.96568695 156.546665,5.91157444 156.496452,5.86023694" id="Fill-80" fill="#010202"></path>
                    </g>
                </g>
            </g>
        </g>
    </g>
</svg>